<?xml version="1.0" standalone="no"?>
<!DOCTYPE svg PUBLIC "-//W3C//DTD SVG 20010904//EN"
 "http://www.w3.org/TR/2001/REC-SVG-20010904/DTD/svg10.dtd">
<svg version="1.0" xmlns="http://www.w3.org/2000/svg"
 width="480.000000pt" height="480.000000pt" viewBox="0 0 480.000000 480.000000"
 preserveAspectRatio="xMidYMid meet">
<metadata>
Created by potrace 1.11, written by Peter Selinger 2001-2013
</metadata>
<g transform="translate(0.000000,480.000000) scale(0.100000,-0.100000)"
fill="#000000" stroke="none">
<path d="M0 2400 l0 -2400 2400 0 2400 0 0 2400 0 2400 -2400 0 -2400 0 0
-2400z m4497 2097 c8 -8 7 -4186 -1 -4194 -8 -8 -4184 -8 -4193 0 -11 12 -7
4189 5 4196 13 8 4181 6 4189 -2z"/>
<path d="M550 3811 c0 -4 6 -15 13 -26 8 -11 40 -69 72 -130 32 -60 99 -186
150 -280 104 -191 139 -256 215 -400 29 -55 56 -104 60 -110 4 -5 31 -55 60
-110 29 -55 81 -152 115 -215 34 -63 82 -151 105 -195 23 -44 53 -98 65 -120
12 -22 44 -80 70 -130 26 -49 60 -112 75 -140 47 -86 86 -157 138 -255 28 -52
66 -124 85 -159 l35 -64 22 42 c11 23 29 57 39 74 37 66 80 145 139 257 l61
115 -30 55 c-17 30 -51 93 -76 140 -25 47 -58 108 -73 135 -15 28 -49 91 -75
140 -26 50 -111 207 -188 350 -76 143 -158 294 -180 335 -22 41 -52 98 -67
125 -15 28 -51 95 -80 150 -29 55 -56 105 -60 110 -4 6 -40 73 -80 150 -40 77
-77 145 -82 151 -9 12 -528 16 -528 5z"/>
<path d="M3712 3781 c-27 -50 -72 -132 -119 -221 -22 -41 -71 -131 -108 -200
-37 -69 -84 -156 -105 -195 -21 -38 -83 -153 -137 -255 -55 -102 -122 -225
-148 -275 -26 -49 -56 -103 -65 -120 -9 -16 -39 -70 -65 -120 -26 -49 -60
-112 -75 -140 -83 -151 -290 -537 -290 -540 0 -2 -15 -30 -34 -62 -18 -32 -59
-107 -91 -168 -32 -60 -79 -148 -105 -195 -68 -125 -160 -298 -160 -303 0 -2
115 -4 255 -4 l256 0 19 27 c11 16 20 30 20 33 0 2 19 40 43 83 24 44 68 124
97 179 29 55 65 123 80 150 35 63 74 135 135 250 26 50 56 104 65 120 10 17
38 68 63 115 24 47 56 105 69 130 14 25 49 90 78 145 29 55 60 114 70 130 10
17 39 71 65 120 44 82 66 124 145 270 15 28 109 203 210 390 100 187 195 363
210 390 15 28 51 95 80 150 29 55 59 109 67 120 7 11 13 22 13 26 0 3 -117 6
-259 6 l-259 0 -20 -36z"/>
</g>
</svg>
